
<mxfile host="app.diagrams.net">
  <diagram name="Arquitetura de Gestão de Logs - Escalável e Alta Disponibilidade">
    <mxGraphModel dx="991" dy="556" grid="1" gridSize="10" guides="1" tooltips="1" connect="1" arrows="1" fold="1" shadow="0">
      <root>
        <mxCell id="0" />
        <mxCell id="1" parent="0" />
        <mxCell id="2" value="Servidores Linux" style="rounded=1;whiteSpace=wrap;html=1;" vertex="1" parent="1">
          <mxGeometry x="40" y="100" width="120" height="50" as="geometry" />
        </mxCell>
        <mxCell id="3" value="Servidores Windows" style="rounded=1;whiteSpace=wrap;html=1;" vertex="1" parent="1">
          <mxGeometry x="200" y="100" width="120" height="50" as="geometry" />
        </mxCell>
        <mxCell id="4" value="Roteadores" style="rounded=1;whiteSpace=wrap;html=1;" vertex="1" parent="1">
          <mxGeometry x="360" y="100" width="120" height="50" as="geometry" />
        </mxCell>
        <mxCell id="5" value="Firewalls" style="rounded=1;whiteSpace=wrap;html=1;" vertex="1" parent="1">
          <mxGeometry x="520" y="100" width="120" height="50" as="geometry" />
        </mxCell>
        <mxCell id="6" value="Aplicativos" style="rounded=1;whiteSpace=wrap;html=1;" vertex="1" parent="1">
          <mxGeometry x="680" y="100" width="120" height="50" as="geometry" />
        </mxCell>
        <mxCell id="7" value="Balanceadores de Carga" style="rounded=1;whiteSpace=wrap;html=1;" vertex="1" parent="1">
          <mxGeometry x="360" y="200" width="160" height="50" as="geometry" />
        </mxCell>
        <mxCell id="8" value="Clusters de Processamento" style="rounded=1;whiteSpace=wrap;html=1;" vertex="1" parent="1">
          <mxGeometry x="260" y="300" width="160" height="50" as="geometry" />
        </mxCell>
        <mxCell id="9" value="Backends de Armazenamento" style="rounded=1;whiteSpace=wrap;html=1;" vertex="1" parent="1">
          <mxGeometry x="460" y="300" width="160" height="50" as="geometry" />
        </mxCell>
        <mxCell id="10" value="HIDS" style="rounded=1;whiteSpace=wrap;html=1;" vertex="1" parent="1">
          <mxGeometry x="160" y="400" width="120" height="50" as="geometry" />
        </mxCell>
        <mxCell id="11" value="Ferramenta de Visualização" style="rounded=1;whiteSpace=wrap;html=1;" vertex="1" parent="1">
          <mxGeometry x="360" y="400" width="160" height="50" as="geometry" />
        </mxCell>
        <mxCell id="12" value="Sistema de Rotacionamento de Logs" style="rounded=1;whiteSpace=wrap;html=1;" vertex="1" parent="1">
          <mxGeometry x="580" y="400" width="200" height="50" as="geometry" />
        </mxCell>
      </root>
    </mxGraphModel>
  </diagram>
</mxfile>
